<?xml version="1.0" encoding="UTF-8" standalone="no"?>
<!-- Created with Inkscape (http://www.inkscape.org/) -->

<svg
   width="73.916527mm"
   height="25.422302mm"
   viewBox="0 0 73.916527 25.422302"
   version="1.1"
   id="svg5"
   xml:space="preserve"
   xmlns:inkscape="http://www.inkscape.org/namespaces/inkscape"
   xmlns:sodipodi="http://sodipodi.sourceforge.net/DTD/sodipodi-0.dtd"
   xmlns="http://www.w3.org/2000/svg"
   xmlns:svg="http://www.w3.org/2000/svg"><sodipodi:namedview
     id="namedview7"
     pagecolor="#ffffff"
     bordercolor="#999999"
     borderopacity="1"
     inkscape:showpageshadow="0"
     inkscape:pageopacity="0"
     inkscape:pagecheckerboard="0"
     inkscape:deskcolor="#d1d1d1"
     inkscape:document-units="mm"
     showgrid="false"
     inkscape:zoom="0.71090067"
     inkscape:cx="395.97656"
     inkscape:cy="449.42987"
     inkscape:window-width="1920"
     inkscape:window-height="1001"
     inkscape:window-x="-9"
     inkscape:window-y="-9"
     inkscape:window-maximized="1"
     inkscape:current-layer="OBJECTS" /><defs
     id="defs2" /><g
     inkscape:label="Calque 1"
     inkscape:groupmode="layer"
     id="layer1"
     transform="translate(-46.351682,-149.92962)"><g
       id="g415"
       transform="matrix(0.26458333,0,0,0.26458333,55.929355,60.767701)"><g
         id="OBJECTS"
         transform="translate(-12.659997,213.81328)">
	
	
	
	
<g
   id="g851"><g
     id="g241"
     transform="matrix(0.98932617,0,0,0.98932617,-431.69645,204.82569)"
     style="fill:#ff6600">
		
		
	<g
   id="g605"
   transform="translate(75.959975,-164.57996)"
   style="fill:#ff6600">
			<g
   id="g581"
   style="fill:#ff6600">
				<path
   style="fill:#ff6600;stroke:#010e30;stroke-width:2;stroke-linecap:round;stroke-linejoin:round;stroke-miterlimit:10"
   d="m 366.406,170.529 c -15.871,0 -28.737,-1.979 -28.739,-4.421 v 7.642 c 0,2.442 12.867,4.421 28.739,4.421 15.872,0 28.739,-1.979 28.739,-4.421 v -7.642 c -10e-4,2.442 -12.868,4.421 -28.739,4.421 z"
   id="path575" />
				<g
   id="g579"
   style="fill:#ff6600">
					<path
   style="fill:#ff6600"
   d="m 390.682,162.65 v 2.191 c 2.224,0.562 3.035,1.059 3.303,1.281 -1.455,1.417 -11.657,3.341 -27.579,3.341 -15.922,0 -26.124,-1.924 -27.579,-3.341 0.283,-0.234 1.166,-0.774 3.677,-1.373 v -2.187 c -5.16,1.154 -5.903,2.479 -5.903,3.546 0,5.333 26.754,5.487 29.805,5.487 3.051,0 29.804,-0.154 29.804,-5.487 0,-1.04 -0.714,-2.325 -5.528,-3.458 z"
   id="path577" />
				</g>
			</g>
			<g
   id="g587"
   style="fill:#ff6600">
				<path
   style="fill:#ff6600"
   d="m 379.767,121.478 c 5.518,-3.102 11.772,-6.619 11.772,-15.274 v -8.623 h -2.132 v 8.623 c 0,7.408 -5.432,10.462 -10.686,13.416 -4.681,2.632 -9.522,5.354 -9.522,11.113 0,5.759 4.84,8.48 9.522,11.112 5.253,2.954 10.686,6.008 10.686,13.417 v 9.508 c -1.984,0.587 -8.641,2.157 -23.001,2.157 -14.364,0 -21.021,-1.572 -23,-2.157 v -9.509 c 0,-7.408 5.432,-10.463 10.686,-13.417 4.682,-2.632 9.522,-5.354 9.522,-11.112 0,-5.759 -4.841,-8.481 -9.522,-11.113 -5.253,-2.954 -10.686,-6.008 -10.686,-13.416 V 97.58 h -2.132 v 8.623 c 0,8.655 6.255,12.172 11.772,15.274 4.527,2.545 8.435,4.743 8.435,9.255 0,4.512 -3.909,6.71 -8.434,9.254 -5.519,3.103 -11.773,6.62 -11.773,15.275 v 10.279 c 0,0.432 0.26,0.821 0.66,0.986 0.251,0.103 6.36,2.533 24.472,2.533 18.112,0 24.222,-2.43 24.473,-2.533 0.4,-0.165 0.66,-0.554 0.66,-0.986 v -10.279 c 0,-8.655 -6.255,-12.172 -11.773,-15.275 -4.526,-2.545 -8.434,-4.743 -8.434,-9.254 -10e-4,-4.511 3.908,-6.709 8.435,-9.254 z"
   id="path583" />
				<path
   style="fill:#ff6600"
   d="m 390.473,165.541 h 0.01 z"
   id="path585" />
			</g>
			<g
   id="g593"
   style="fill:#ff6600">
				<path
   style="fill:#ff6600;stroke:#010e30;stroke-width:2;stroke-linecap:round;stroke-linejoin:round;stroke-miterlimit:10"
   d="m 395.145,87.471 c 0,-2.442 -12.867,-4.421 -28.739,-4.421 -15.872,0 -28.739,1.979 -28.739,4.421 0,2.442 12.867,4.421 28.739,4.421 15.872,0 28.739,-1.98 28.739,-4.421 z"
   id="path589" />
				<path
   style="fill:#ff6600;stroke:#010e30;stroke-width:2;stroke-linecap:round;stroke-linejoin:round;stroke-miterlimit:10"
   d="m 366.406,91.892 c -15.871,0 -28.737,-1.979 -28.739,-4.421 v 7.642 c 0,2.442 12.867,4.421 28.739,4.421 15.872,0 28.739,-1.979 28.739,-4.421 v -7.642 c -10e-4,2.442 -12.868,4.421 -28.739,4.421 z"
   id="path591" />
			</g>
			<path
   style="fill:#ff6600"
   d="m 345.931,159.775 v 6.124 c 3.612,0.721 10.016,1.537 20.5,1.537 10.484,0 16.888,-0.816 20.5,-1.537 v -4.347 c -2.399,2.31 -8.832,3.599 -18.457,3.599 -11.804,0 -19.798,-2.473 -22.543,-5.376 z"
   id="path595" />
			<path
   style="fill:#ff6600"
   d="m 386.931,165.899 c -3.612,0.721 -10.016,1.537 -20.5,1.537 -10.484,0 -16.888,-0.816 -20.5,-1.537 v -6.124 c 2.746,2.903 10.739,5.376 22.543,5.376 9.625,0 16.057,-1.289 18.457,-3.599 z"
   id="path597" />
			<path
   style="fill:#ff6600"
   d="m 378.771,156.239 c 1.072,0.105 2.071,0.205 2.983,0.313 0.084,0.01 0.172,0.02 0.254,0.03 0.115,0.014 0.224,0.029 0.336,0.043 0.13,0.017 0.261,0.033 0.387,0.051 0.083,0.012 0.161,0.024 0.243,0.036 0.147,0.021 0.295,0.043 0.435,0.065 0.056,0.009 0.108,0.019 0.163,0.028 0.16,0.027 0.32,0.054 0.47,0.083 0.032,0.006 0.062,0.013 0.093,0.019 0.166,0.033 0.328,0.067 0.481,0.102 0.021,0.005 0.04,0.01 0.061,0.015 0.159,0.038 0.313,0.077 0.457,0.119 0.013,0.004 0.026,0.008 0.039,0.012 0.147,0.043 0.287,0.089 0.417,0.136 0.013,0.005 0.023,0.01 0.036,0.014 0.128,0.048 0.248,0.098 0.358,0.151 0.013,0.006 0.023,0.012 0.036,0.019 0.105,0.052 0.203,0.107 0.291,0.164 0.014,0.009 0.026,0.019 0.04,0.029 0.08,0.055 0.154,0.112 0.218,0.172 0.017,0.015 0.03,0.032 0.045,0.048 0.054,0.055 0.102,0.112 0.143,0.172 0.017,0.026 0.03,0.054 0.045,0.081 0.029,0.052 0.054,0.104 0.073,0.159 0.014,0.041 0.022,0.084 0.03,0.128 0.007,0.037 0.013,0.074 0.016,0.113 -0.156,2.155 -5.063,6.309 -18.446,6.309 -15.736,0 -22.543,-6.002 -22.543,-8.215 0,-0.276 0.032,-0.543 0.095,-0.798 0.189,-0.766 0.661,-1.436 1.409,-1.998 0.152,-0.114 0.321,-0.225 0.501,-0.331 0.05,-0.03 0.108,-0.057 0.16,-0.086 0.134,-0.074 0.272,-0.148 0.421,-0.217 0.075,-0.035 0.156,-0.068 0.234,-0.101 0.139,-0.06 0.283,-0.118 0.433,-0.174 0.09,-0.033 0.184,-0.065 0.279,-0.096 0.154,-0.051 0.313,-0.1 0.477,-0.146 0.102,-0.029 0.205,-0.057 0.311,-0.083 0.173,-0.044 0.354,-0.083 0.539,-0.121 0.109,-0.022 0.216,-0.045 0.329,-0.066 0.205,-0.037 0.419,-0.068 0.637,-0.097 0.104,-0.014 0.203,-0.031 0.31,-0.043 0.297,-0.034 0.606,-0.061 0.926,-0.081 0.034,-0.002 0.065,-0.006 0.1,-0.008 0.36,-0.021 0.735,-0.031 1.122,-0.031 0.045,0 0.093,0.003 0.138,0.003 0.546,0.002 1.122,0.026 1.722,0.071 0.068,0.005 0.132,0.007 0.2,0.013 0.608,0.05 1.249,0.128 1.911,0.226 0.118,0.018 0.236,0.035 0.355,0.054 0.665,0.106 1.356,0.236 2.074,0.394 0.112,0.025 0.227,0.053 0.34,0.079 0.759,0.175 1.54,0.371 2.356,0.608 0.592,0.172 1.833,0.525 2.417,0.674 0,0 0.082,2.281 -0.519,2.709 -0.615,0.438 -0.169,1.503 1.224,1.503 1.393,0 1.853,-0.918 1.189,-1.411 -0.672,-0.499 -0.509,-2.526 -0.509,-2.526 4.054,0.842 8.482,1.372 11.658,1.684 z"
   id="path599" />
			<path
   style="fill:#ff6600"
   d="m 367.947,116.825 c -11.161,1.387 -20.961,-5.38 -20.041,-9 0.703,-2.767 5.031,-0.497 9.54,-0.175 5.163,0.37 11.589,0.826 17.465,-1.558 5.963,-2.422 9.64,-2.996 11.284,-2.125 2.903,1.539 -6.118,11.351 -18.248,12.858 z"
   id="path601" />
			<path
   style="fill:#ff6600"
   d="m 377.528,116.516 c 3.913,-2.126 6.743,-4.331 8.333,-6.452 -15.958,10.063 -24.961,7.986 -33.213,5.49 0.942,0.578 1.9,1.137 2.619,1.541 l 1.126,0.627 c 4.557,2.519 9.723,5.375 9.745,12.047 V 156.4 c 0,0.988 -0.726,0.834 -0.675,1.314 0.031,0.294 0.488,0.654 0.944,0.654 0.457,0 0.913,-0.359 0.944,-0.654 0.043,-0.406 -0.466,-0.365 -0.625,-0.939 v -27.05 c 0.051,-7.37 6.265,-10.745 10.802,-13.209 z"
   id="path603" />
		</g></g><text
     xml:space="preserve"
     style="font-style:normal;font-variant:normal;font-weight:bold;font-stretch:normal;font-size:58.6667px;line-height:1.25;font-family:'Century Gothic';-inkscape-font-specification:'Century Gothic, Bold';font-variant-ligatures:normal;font-variant-caps:normal;font-variant-numeric:normal;font-variant-east-asian:normal;fill:#000000;fill-opacity:1;stroke:none;stroke-width:1.45457"
     x="48.234123"
     y="167.94992"
     id="text661"><tspan
       sodipodi:role="line"
       x="48.234123"
       y="167.94992"
       style="font-style:normal;font-variant:normal;font-weight:bold;font-stretch:normal;font-size:58.6667px;font-family:'Century Gothic';-inkscape-font-specification:'Century Gothic, Bold';font-variant-ligatures:normal;font-variant-caps:normal;font-variant-numeric:normal;font-variant-east-asian:normal;stroke-width:1.45457"
       id="tspan713">Chrono</tspan><tspan
       sodipodi:role="line"
       x="48.234123"
       y="241.28329"
       style="font-style:normal;font-variant:normal;font-weight:bold;font-stretch:normal;font-size:58.6667px;font-family:'Century Gothic';-inkscape-font-specification:'Century Gothic, Bold';font-variant-ligatures:normal;font-variant-caps:normal;font-variant-numeric:normal;font-variant-east-asian:normal;stroke-width:1.45457"
       id="tspan717" /></text><text
     xml:space="preserve"
     style="font-style:normal;font-weight:normal;font-size:40px;line-height:1.25;font-family:sans-serif;fill:#000000;fill-opacity:1;stroke:none"
     x="54.473385"
     y="217.64665"
     id="text721"><tspan
       sodipodi:role="line"
       id="tspan719"
       x="54.473385"
       y="217.64665"
       style="font-style:normal;font-variant:normal;font-weight:bold;font-stretch:normal;font-size:58.6667px;font-family:'Century Gothic';-inkscape-font-specification:'Century Gothic, Bold';font-variant-ligatures:normal;font-variant-caps:normal;font-variant-numeric:normal;font-variant-east-asian:normal">Tales</tspan></text></g></g></g></g></svg>
